<?xml version="1.0" encoding="UTF-8"?>
<svg xmlns="http://www.w3.org/2000/svg" xmlns:xlink="http://www.w3.org/1999/xlink" width="142px" height="33px" viewBox="0 0 142 33" version="1.1">
<g id="surface1">
<path style=" stroke:none;fill-rule:nonzero;fill:rgb(100%,100%,100%);fill-opacity:1;" d="M 0 6.738281 L 0 32.609375 L 3.757812 32.609375 L 3.757812 13.875 L 4 13.875 L 11.722656 32.570312 L 14.84375 32.570312 L 22.5625 13.886719 L 22.804688 13.886719 L 22.804688 32.609375 L 26.5625 32.609375 L 26.5625 6.738281 L 21.769531 6.738281 L 13.4375 26.847656 L 13.128906 26.847656 L 4.792969 6.738281 Z M 0 6.738281 "/>
<path style=" stroke:none;fill-rule:nonzero;fill:rgb(100%,100%,100%);fill-opacity:1;" d="M 41.132812 33 C 45.414062 33 48.445312 30.914062 49.3125 27.757812 L 45.695312 27.113281 C 45.003906 28.945312 43.34375 29.878906 41.167969 29.878906 C 37.898438 29.878906 35.699219 27.78125 35.597656 24.042969 L 49.554688 24.042969 L 49.554688 22.703125 C 49.554688 15.695312 45.3125 12.953125 40.863281 12.953125 C 35.390625 12.953125 31.785156 17.070312 31.785156 23.03125 C 31.785156 29.058594 35.339844 33 41.132812 33 Z M 35.609375 21.214844 C 35.761719 18.460938 37.78125 16.074219 40.886719 16.074219 C 43.855469 16.074219 45.796875 18.246094 45.808594 21.214844 Z M 35.609375 21.214844 "/>
<path style=" stroke:none;fill-rule:nonzero;fill:rgb(100%,100%,100%);fill-opacity:1;" d="M 68.511719 17.941406 C 67.71875 14.921875 65.328125 12.953125 61.082031 12.953125 C 56.648438 12.953125 53.503906 15.265625 53.503906 18.699219 C 53.503906 21.453125 55.191406 23.285156 58.871094 24.09375 L 62.195312 24.8125 C 64.085938 25.230469 64.96875 26.066406 64.96875 27.277344 C 64.96875 28.78125 63.347656 29.957031 60.839844 29.957031 C 58.550781 29.957031 57.082031 28.984375 56.621094 27.074219 L 52.925781 27.632812 C 53.566406 31.066406 56.457031 33 60.867188 33 C 65.609375 33 68.894531 30.511719 68.894531 27 C 68.894531 24.257812 67.128906 22.566406 63.523438 21.746094 L 60.40625 21.035156 C 58.246094 20.53125 57.3125 19.8125 57.324219 18.496094 C 57.3125 17.007812 58.949219 15.945312 61.121094 15.945312 C 63.5 15.945312 64.597656 17.246094 65.046875 18.546875 Z M 68.511719 17.941406 "/>
<path style=" stroke:none;fill-rule:nonzero;fill:rgb(100%,100%,100%);fill-opacity:1;" d="M 82.261719 13.207031 L 78.234375 13.207031 L 78.234375 8.554688 L 74.414062 8.554688 L 74.414062 13.207031 L 71.535156 13.207031 L 71.535156 16.238281 L 74.414062 16.238281 L 74.414062 27.695312 C 74.402344 31.21875 77.125 32.925781 80.140625 32.859375 C 81.355469 32.847656 82.171875 32.621094 82.621094 32.457031 L 81.929688 29.335938 C 81.675781 29.386719 81.203125 29.5 80.589844 29.5 C 79.347656 29.5 78.234375 29.097656 78.234375 26.910156 L 78.234375 16.238281 L 82.261719 16.238281 Z M 82.261719 13.207031 "/>
<path style=" stroke:none;fill-rule:nonzero;fill:rgb(100%,100%,100%);fill-opacity:1;" d="M 94.550781 33 C 100.085938 33 103.703125 28.996094 103.703125 22.996094 C 103.703125 16.957031 100.085938 12.953125 94.550781 12.953125 C 89.015625 12.953125 85.398438 16.957031 85.398438 22.996094 C 85.398438 28.996094 89.015625 33 94.550781 33 Z M 94.5625 29.828125 C 90.945312 29.828125 89.257812 26.710938 89.257812 22.984375 C 89.257812 19.269531 90.945312 16.109375 94.5625 16.109375 C 98.15625 16.109375 99.84375 19.269531 99.84375 22.984375 C 99.84375 26.710938 98.15625 29.828125 94.5625 29.828125 Z M 94.5625 29.828125 "/>
<path style=" stroke:none;fill-rule:nonzero;fill:rgb(100%,100%,100%);fill-opacity:1;" d="M 107.175781 8.894531 L 108.234375 8.894531 L 108.234375 5.523438 L 110.140625 5.523438 C 110.21875 5.523438 110.289062 5.523438 110.363281 5.519531 L 112.203125 8.894531 L 113.433594 8.894531 L 111.460938 5.332031 C 112.570312 4.957031 113.089844 4.058594 113.089844 2.914062 C 113.089844 1.390625 112.171875 0.269531 110.125 0.269531 L 107.175781 0.269531 Z M 108.234375 4.582031 L 108.234375 1.195312 L 110.089844 1.195312 C 111.507812 1.195312 112.050781 1.878906 112.050781 2.914062 C 112.050781 3.949219 111.507812 4.582031 110.109375 4.582031 Z M 108.234375 4.582031 "/>
<path style=" stroke:none;fill-rule:nonzero;fill:rgb(100%,100%,100%);fill-opacity:1;" d="M 118.839844 6.25 C 118.839844 7.460938 117.902344 8.015625 117.152344 8.015625 C 116.316406 8.015625 115.722656 7.410156 115.722656 6.46875 L 115.722656 2.425781 L 114.714844 2.425781 L 114.714844 6.535156 C 114.714844 8.1875 115.601562 8.976562 116.828125 8.976562 C 117.816406 8.976562 118.464844 8.457031 118.773438 7.796875 L 118.839844 7.796875 L 118.839844 8.894531 L 119.847656 8.894531 L 119.847656 2.425781 L 118.839844 2.425781 Z M 118.839844 6.25 "/>
<path style=" stroke:none;fill-rule:nonzero;fill:rgb(100%,100%,100%);fill-opacity:1;" d="M 126.324219 3.875 C 126.007812 2.957031 125.300781 2.339844 124.007812 2.339844 C 122.625 2.339844 121.601562 3.117188 121.601562 4.210938 C 121.601562 5.101562 122.140625 5.703125 123.339844 5.980469 L 124.433594 6.230469 C 125.09375 6.382812 125.402344 6.695312 125.402344 7.140625 C 125.402344 7.699219 124.808594 8.152344 123.871094 8.152344 C 123.046875 8.152344 122.53125 7.800781 122.351562 7.109375 L 121.398438 7.34375 C 121.632812 8.441406 122.550781 9.027344 123.886719 9.027344 C 125.40625 9.027344 126.441406 8.207031 126.441406 7.089844 C 126.441406 6.191406 125.871094 5.621094 124.703125 5.339844 L 123.734375 5.101562 C 122.957031 4.914062 122.609375 4.65625 122.609375 4.160156 C 122.609375 3.605469 123.203125 3.199219 124.007812 3.199219 C 124.882812 3.199219 125.246094 3.679688 125.421875 4.125 Z M 126.324219 3.875 "/>
<path style=" stroke:none;fill-rule:nonzero;fill:rgb(100%,100%,100%);fill-opacity:1;" d="M 132.59375 3.875 C 132.277344 2.957031 131.570312 2.339844 130.273438 2.339844 C 128.894531 2.339844 127.871094 3.117188 127.871094 4.210938 C 127.871094 5.101562 128.410156 5.703125 129.609375 5.980469 L 130.699219 6.230469 C 131.363281 6.382812 131.671875 6.695312 131.671875 7.140625 C 131.671875 7.699219 131.074219 8.152344 130.140625 8.152344 C 129.316406 8.152344 128.800781 7.800781 128.621094 7.109375 L 127.667969 7.34375 C 127.902344 8.441406 128.816406 9.027344 130.15625 9.027344 C 131.675781 9.027344 132.714844 8.207031 132.714844 7.089844 C 132.714844 6.191406 132.140625 5.621094 130.972656 5.339844 L 130.003906 5.101562 C 129.226562 4.914062 128.878906 4.65625 128.878906 4.160156 C 128.878906 3.605469 129.472656 3.199219 130.273438 3.199219 C 131.152344 3.199219 131.515625 3.679688 131.691406 4.125 Z M 132.59375 3.875 "/>
<path style=" stroke:none;fill-rule:nonzero;fill:rgb(100%,100%,100%);fill-opacity:1;" d="M 134.226562 8.894531 L 135.230469 8.894531 L 135.230469 2.425781 L 134.226562 2.425781 Z M 134.738281 1.347656 C 135.128906 1.347656 135.453125 1.042969 135.453125 0.671875 C 135.453125 0.304688 135.128906 0 134.738281 0 C 134.347656 0 134.023438 0.304688 134.023438 0.671875 C 134.023438 1.042969 134.347656 1.347656 134.738281 1.347656 Z M 134.738281 1.347656 "/>
<path style=" stroke:none;fill-rule:nonzero;fill:rgb(100%,100%,100%);fill-opacity:1;" d="M 139 9.042969 C 140.140625 9.042969 140.738281 8.4375 140.941406 8.015625 L 140.992188 8.015625 L 140.992188 8.894531 L 142 8.894531 L 142 4.632812 C 142 2.578125 140.414062 2.339844 139.578125 2.339844 C 138.589844 2.339844 137.464844 2.679688 136.953125 3.855469 L 137.910156 4.195312 C 138.132812 3.722656 138.65625 3.21875 139.613281 3.21875 C 140.539062 3.21875 140.992188 3.703125 140.992188 4.53125 L 140.992188 4.566406 C 140.992188 5.042969 140.5 5.003906 139.308594 5.152344 C 138.09375 5.308594 136.765625 5.574219 136.765625 7.058594 C 136.765625 8.320312 137.757812 9.042969 139 9.042969 Z M 139.152344 8.152344 C 138.351562 8.152344 137.773438 7.796875 137.773438 7.109375 C 137.773438 6.351562 138.472656 6.113281 139.257812 6.011719 C 139.683594 5.960938 140.824219 5.84375 140.992188 5.640625 L 140.992188 6.550781 C 140.992188 7.359375 140.347656 8.152344 139.152344 8.152344 Z M 139.152344 8.152344 "/>
</g>
</svg>
